<svg width="29" height="27" viewBox="0 0 29 27" fill="none" xmlns="http://www.w3.org/2000/svg">
<path fill-rule="evenodd" clip-rule="evenodd" d="M27.625 1.08484V20.0432L15.9583 20.0432L7.20833 25.8765V20.0432H1.375V1.08484H27.625Z" fill="#FEFEFE"/>
<path d="M27.625 20.0432V21.0432C27.8902 21.0432 28.1446 20.9378 28.3321 20.7503C28.5196 20.5627 28.625 20.3084 28.625 20.0432H27.625ZM27.625 1.08484H28.625C28.625 0.532554 28.1773 0.0848389 27.625 0.0848389V1.08484ZM15.9583 20.0432V19.0432C15.7609 19.0432 15.5679 19.1016 15.4036 19.2111L15.9583 20.0432ZM7.20833 25.8765H6.20833C6.20833 26.2453 6.41132 26.5842 6.73648 26.7582C7.06163 26.9322 7.45618 26.9131 7.76303 26.7086L7.20833 25.8765ZM7.20833 20.0432H8.20833C8.20833 19.4909 7.76062 19.0432 7.20833 19.0432V20.0432ZM1.375 20.0432H0.375C0.375 20.5955 0.822715 21.0432 1.375 21.0432L1.375 20.0432ZM1.375 1.08484V0.0848389C0.822715 0.0848389 0.375 0.532554 0.375 1.08484L1.375 1.08484ZM28.625 20.0432V1.08484H26.625V20.0432H28.625ZM15.9583 21.0432L27.625 21.0432V19.0432L15.9583 19.0432V21.0432ZM7.76303 26.7086L16.513 20.8752L15.4036 19.2111L6.65363 25.0445L7.76303 26.7086ZM6.20833 20.0432V25.8765H8.20833V20.0432H6.20833ZM1.375 21.0432H7.20833V19.0432H1.375V21.0432ZM0.375 1.08484V20.0432H2.375V1.08484H0.375ZM27.625 0.0848389H1.375V2.08484H27.625V0.0848389Z" fill="#FEFEFE"/>
</svg>
