<svg width="15" height="15" viewBox="0 0 15 15" fill="none" xmlns="http://www.w3.org/2000/svg">
<path d="M7.03125 3.875C6.5677 3.875 6.11456 4.01246 5.72913 4.26999C5.3437 4.52753 5.0433 4.89357 4.86591 5.32184C4.68851 5.7501 4.6421 6.22135 4.73253 6.67599C4.82297 7.13064 5.04619 7.54825 5.37397 7.87603C5.70175 8.20381 6.11936 8.42703 6.57401 8.51747C7.02865 8.6079 7.4999 8.56149 7.92816 8.38409C8.35643 8.2067 8.72247 7.9063 8.98001 7.52087C9.23754 7.13544 9.375 6.6823 9.375 6.21875C9.375 5.59715 9.12807 5.00101 8.68853 4.56147C8.24899 4.12193 7.65285 3.875 7.03125 3.875ZM7.03125 7.625C6.75312 7.625 6.48124 7.54253 6.24998 7.388C6.01872 7.23348 5.83848 7.01386 5.73204 6.7569C5.62561 6.49994 5.59776 6.21719 5.65202 5.9444C5.70628 5.67162 5.84021 5.42105 6.03688 5.22438C6.23355 5.02771 6.48412 4.89378 6.7569 4.83952C7.02969 4.78526 7.31244 4.81311 7.5694 4.91954C7.82636 5.02598 8.04598 5.20622 8.2005 5.43748C8.35503 5.66874 8.4375 5.94062 8.4375 6.21875C8.4375 6.59171 8.28934 6.9494 8.02562 7.21312C7.7619 7.47684 7.40421 7.625 7.03125 7.625ZM13.5938 2H0.46875C0.34443 2 0.225201 2.04939 0.137294 2.13729C0.049386 2.2252 0 2.34443 0 2.46875V9.96875C0 10.0931 0.049386 10.2123 0.137294 10.3002C0.225201 10.3881 0.34443 10.4375 0.46875 10.4375H13.5938C13.7181 10.4375 13.8373 10.3881 13.9252 10.3002C14.0131 10.2123 14.0625 10.0931 14.0625 9.96875V2.46875C14.0625 2.34443 14.0131 2.2252 13.9252 2.13729C13.8373 2.04939 13.7181 2 13.5938 2ZM10.8779 9.5H3.18457C3.02719 8.96774 2.73915 8.4833 2.34667 8.09083C1.9542 7.69836 1.46976 7.41031 0.9375 7.25293V5.18457C1.46976 5.02719 1.9542 4.73915 2.34667 4.34667C2.73915 3.9542 3.02719 3.46976 3.18457 2.9375H10.8779C11.0353 3.46976 11.3234 3.9542 11.7158 4.34667C12.1083 4.73915 12.5927 5.02719 13.125 5.18457V7.25293C12.5927 7.41031 12.1083 7.69836 11.7158 8.09083C11.3234 8.4833 11.0353 8.96774 10.8779 9.5ZM13.125 4.18965C12.5628 3.94789 12.1146 3.49974 11.8729 2.9375H13.125V4.18965ZM2.18965 2.9375C1.94789 3.49974 1.49974 3.94789 0.9375 4.18965V2.9375H2.18965ZM0.9375 8.24785C1.49974 8.48961 1.94789 8.93776 2.18965 9.5H0.9375V8.24785ZM11.8729 9.5C12.1146 8.93776 12.5628 8.48961 13.125 8.24785V9.5H11.8729Z" fill="black"/>
</svg>
