<svg width="15" height="15" viewBox="0 0 15 15" fill="none" xmlns="http://www.w3.org/2000/svg">
<path d="M2.53125 13.125C2.34375 13.125 2.1875 13.0625 2.0625 12.9375C1.9375 12.8125 1.875 12.6563 1.875 12.4688V9.9375C1.875 9.79167 1.92187 9.66396 2.01562 9.55437C2.10937 9.44479 2.22917 9.37458 2.375 9.34375L4.53125 8.90625C4.67708 8.88542 4.82562 8.89854 4.97687 8.94562C5.12812 8.99271 5.25042 9.06292 5.34375 9.15625L6.8125 10.625C7.60417 10.1458 8.32812 9.57812 8.98438 8.92188C9.64062 8.26562 10.1875 7.5625 10.625 6.8125L9.125 5.28125C9.03125 5.1875 8.97125 5.08062 8.945 4.96062C8.91875 4.84062 8.91625 4.70792 8.9375 4.5625L9.34375 2.375C9.36458 2.22917 9.43229 2.10937 9.54688 2.01562C9.66146 1.92187 9.79167 1.875 9.9375 1.875H12.4688C12.6563 1.875 12.8125 1.9375 12.9375 2.0625C13.0625 2.1875 13.125 2.34375 13.125 2.53125C13.125 3.875 12.8254 5.185 12.2262 6.46125C11.6271 7.7375 10.8354 8.86771 9.85125 9.85187C8.86708 10.836 7.73688 11.6277 6.46062 12.2269C5.18437 12.826 3.87458 13.1254 2.53125 13.125Z" fill="black"/>
</svg>
